<?xml version="1.0" standalone="no"?>
<!DOCTYPE svg PUBLIC "-//W3C//DTD SVG 20010904//EN"
 "http://www.w3.org/TR/2001/REC-SVG-20010904/DTD/svg10.dtd">
<svg version="1.0" xmlns="http://www.w3.org/2000/svg"
 width="110.000000pt" height="118.000000pt" viewBox="0 0 110.000000 118.000000"
 preserveAspectRatio="xMidYMid meet">
<metadata>
Created by potrace 1.12, written by Peter Selinger 2001-2015
</metadata>
<g transform="translate(0.000000,118.000000) scale(0.100000,-0.100000)"
fill="#000000" stroke="none">
<path d="M357 1118 c-58 -64 -97 -157 -97 -234 0 -39 -4 -64 -12 -66 -19 -7 2
-30 22 -25 14 3 16 0 12 -17 -3 -11 -10 -24 -15 -28 -22 -14 31 -288 55 -288
5 0 8 -5 8 -11 0 -6 6 -17 13 -24 39 -44 39 -44 20 -70 -10 -13 -21 -25 -25
-25 -15 0 -8 -40 7 -40 9 0 16 -14 20 -38 4 -20 9 -46 12 -56 5 -19 6 -19 19
-1 12 17 14 17 14 2 0 -9 4 -17 9 -17 5 0 9 -11 9 -25 0 -14 -4 -25 -9 -25 -5
0 -9 -6 -9 -12 0 -7 -4 -19 -9 -27 -7 -11 -14 -10 -37 5 -51 33 -74 65 -74
103 0 33 -23 24 -47 -18 -27 -47 -21 -79 16 -87 14 -3 36 -9 49 -14 17 -8 22
-6 22 5 0 13 3 13 25 -1 14 -9 25 -25 25 -36 0 -16 2 -17 13 -6 7 7 20 29 30
49 9 20 24 42 32 49 9 8 23 27 32 44 l16 31 -28 -25 c-16 -14 -25 -20 -22 -14
4 6 0 20 -8 30 -19 25 -20 58 -1 51 16 -6 46 22 46 44 0 16 49 44 94 54 22 5
26 9 17 18 -8 8 -14 8 -23 -1 -28 -28 -161 2 -173 39 -4 11 -10 19 -14 19 -4
0 -7 12 -6 27 0 21 6 29 23 31 25 4 26 6 12 33 -9 16 -7 19 10 19 11 0 20 5
20 10 0 6 -10 10 -22 10 -29 0 -52 15 -44 28 3 5 20 12 38 16 32 6 32 6 10 22
-28 20 -28 37 4 91 21 36 28 42 40 32 11 -9 14 -8 14 5 0 23 29 20 49 -6 16
-19 21 -20 51 -9 27 9 38 8 56 -4 13 -8 44 -15 68 -15 43 0 45 -1 51 -34 4
-19 3 -42 -3 -52 -13 -27 -4 -48 14 -33 8 6 14 17 14 24 0 7 7 36 16 64 16 48
41 70 62 57 5 -3 18 1 28 8 28 21 33 157 8 228 -20 59 -60 128 -73 128 -4 0
-13 11 -19 25 l-12 25 -202 0 -203 0 -38 -42z m336 -120 c8 -13 24 -33 34 -45
16 -18 19 -31 13 -65 -3 -24 -3 -54 1 -68 4 -14 7 -35 8 -48 1 -21 -3 -23 -32
-21 -18 2 -38 -1 -45 -5 -9 -5 -22 0 -35 12 -12 12 -33 25 -47 31 -24 9 -23
10 12 10 20 1 38 -4 40 -11 3 -7 12 -9 22 -5 15 6 15 9 4 20 -18 19 -73 28
-119 21 -45 -8 -51 -21 -11 -27 15 -2 -1 -5 -35 -6 -48 -1 -63 2 -63 13 0 8
-20 27 -45 42 -43 28 -44 30 -38 69 3 22 8 43 12 46 9 10 118 30 203 37 42 4
80 10 84 15 12 12 21 8 37 -15z"/>
</g>
</svg>
