<?xml version="1.0" standalone="no"?>
<!DOCTYPE svg PUBLIC "-//W3C//DTD SVG 20010904//EN"
 "http://www.w3.org/TR/2001/REC-SVG-20010904/DTD/svg10.dtd">
<svg version="1.0" xmlns="http://www.w3.org/2000/svg"
 width="108.000000pt" height="118.000000pt" viewBox="0 0 108.000000 118.000000"
 preserveAspectRatio="xMidYMid meet">
<metadata>
Created by potrace 1.12, written by Peter Selinger 2001-2015
</metadata>
<g transform="translate(0.000000,118.000000) scale(0.100000,-0.100000)"
fill="#000000" stroke="none">
<path d="M352 1154 c-25 -11 -100 -97 -122 -140 -24 -46 -24 -98 0 -194 6 -25
15 -81 20 -126 10 -107 39 -191 74 -215 22 -16 -5 -38 -54 -45 -28 -4 -53 -11
-56 -15 -3 -5 -16 -9 -29 -9 -52 0 -165 -82 -165 -120 0 -5 -4 -10 -10 -10 -6
0 -10 -50 -10 -130 l0 -130 285 0 c253 1 285 3 285 17 0 8 15 32 33 52 31 34
33 35 50 19 19 -20 22 -46 6 -68 -8 -11 -12 -12 -16 -2 -6 16 -28 15 -42 -2
-18 -21 233 -21 254 0 8 9 15 19 15 24 0 11 78 90 90 90 5 0 18 9 29 21 10 11
27 19 38 17 13 -3 4 -13 -37 -39 -56 -37 -120 -100 -120 -119 0 -6 32 -10 80
-10 68 0 84 3 105 22 24 21 25 27 24 122 -1 56 -5 112 -9 126 -5 17 -8 19 -9
8 -1 -24 -11 -23 -43 7 -15 14 -32 25 -38 25 -5 0 -10 7 -10 16 0 12 -7 15
-27 10 -16 -3 -22 -3 -15 0 17 8 15 22 -5 28 -26 8 -83 59 -83 74 0 7 -4 12
-10 12 -5 0 -10 -5 -10 -10 0 -6 -4 -16 -10 -23 -71 -88 -126 -153 -135 -159
-22 -16 -16 16 7 36 38 32 138 176 138 198 0 27 -29 80 -40 73 -6 -4 -10 -17
-10 -31 0 -23 -21 -64 -46 -91 -7 -7 -14 -18 -17 -25 -2 -8 -8 -9 -13 -4 -5 5
-4 11 4 13 6 3 10 9 7 13 -6 9 -36 2 -45 -11 -3 -4 -23 -10 -45 -13 -22 -4
-44 -11 -49 -16 -19 -19 -99 -11 -128 13 -36 29 -42 63 -10 59 15 -2 22 2 22
12 0 9 -4 16 -10 16 -5 0 -10 5 -10 10 0 6 7 10 15 10 8 0 15 4 15 9 0 6 24
12 53 14 42 3 37 4 -25 5 l-78 2 0 30 c0 23 5 31 26 36 29 7 20 24 -15 27 -24
1 -29 22 -7 30 35 14 28 137 -8 137 -7 0 -21 9 -31 20 -10 11 -28 20 -41 20
-21 0 -23 4 -19 43 10 108 44 152 124 162 25 3 60 10 77 15 41 13 70 13 97 -2
41 -24 57 -41 57 -64 0 -13 5 -26 10 -29 6 -3 10 -15 10 -25 0 -10 9 -22 20
-25 20 -6 60 -75 60 -102 0 -7 5 -13 10 -13 6 0 10 6 10 13 0 7 9 20 21 30 17
15 19 25 14 65 -11 79 -23 105 -75 162 l-50 55 -168 2 c-92 1 -173 0 -180 -3z
m76 -381 c-2 -16 -5 -30 -8 -33 -9 -9 -60 -89 -60 -95 0 -3 9 -5 21 -5 16 0
19 -4 14 -17 -28 -67 -30 -76 -17 -80 6 -3 12 -13 12 -24 0 -18 -1 -19 -25 -3
-14 9 -25 24 -25 34 0 10 -6 23 -14 29 -7 6 -17 30 -20 53 -4 23 -11 47 -15
53 -5 5 -11 22 -13 38 -4 21 -1 27 12 27 16 0 66 20 100 40 28 17 41 11 38
-17z"/>
</g>
</svg>
