<?xml version="1.0" standalone="no"?>
<!DOCTYPE svg PUBLIC "-//W3C//DTD SVG 20010904//EN"
 "http://www.w3.org/TR/2001/REC-SVG-20010904/DTD/svg10.dtd">
<svg version="1.0" xmlns="http://www.w3.org/2000/svg"
 width="110.000000pt" height="116.000000pt" viewBox="0 0 110.000000 116.000000"
 preserveAspectRatio="xMidYMid meet">
<metadata>
Created by potrace 1.12, written by Peter Selinger 2001-2015
</metadata>
<g transform="translate(0.000000,116.000000) scale(0.100000,-0.100000)"
fill="#000000" stroke="none">
<path d="M0 1010 l0 -130 99 0 c96 0 100 -1 103 -22 2 -13 9 -22 16 -21 6 2
12 -4 12 -12 0 -8 -8 -15 -17 -16 -14 0 -15 -2 -3 -6 26 -10 34 -36 35 -105 1
-56 5 -71 23 -86 12 -11 22 -26 22 -33 0 -8 14 -41 30 -74 31 -63 37 -85 20
-85 -5 0 -10 -10 -10 -22 0 -14 -9 -27 -23 -34 -67 -33 -107 -59 -107 -69 0
-8 10 -10 25 -7 18 3 25 0 25 -12 0 -9 5 -16 10 -16 6 0 10 -4 10 -10 0 -5 -7
-10 -15 -10 -8 0 -15 -4 -15 -10 0 -19 45 7 48 28 2 11 10 26 18 32 8 7 14 19
14 26 0 23 28 4 44 -30 24 -51 35 -56 81 -40 22 7 48 14 58 14 11 0 18 7 16
18 -3 33 1 40 31 52 16 7 30 16 30 20 0 11 -26 20 -55 20 -15 0 -26 7 -30 20
-3 11 -12 20 -18 20 -22 1 27 30 50 30 31 0 29 18 -2 30 -28 11 -32 25 -10 34
8 3 15 12 15 20 0 7 -7 16 -15 20 -38 14 -2 56 49 56 40 0 30 18 -11 22 l-38
3 -1 50 c-1 28 2 52 6 55 4 3 10 16 11 30 4 22 1 25 -29 24 -17 0 -32 -5 -31
-10 0 -5 7 -8 15 -6 16 3 21 -53 5 -62 -5 -3 -12 -18 -15 -32 -4 -15 -14 -33
-21 -41 -21 -20 -18 -44 5 -50 11 -3 20 -10 20 -15 0 -6 -11 -7 -25 -4 -14 4
-25 2 -25 -4 0 -17 -20 -11 -26 8 -4 9 -13 32 -21 51 -31 70 -17 118 41 141
28 10 36 40 11 40 -8 0 -15 6 -15 13 0 17 60 10 60 -7 0 -6 6 -3 14 6 16 22
104 28 116 8 5 -9 21 -11 50 -7 42 5 85 -9 101 -35 5 -7 9 -36 9 -65 0 -28 5
-55 10 -58 6 -3 10 4 10 16 0 27 21 91 33 100 4 3 14 36 22 74 15 68 10 185
-6 185 -5 0 -9 7 -9 15 0 8 8 15 17 15 13 0 14 3 5 12 -17 17 -15 41 2 35 8
-3 40 -2 72 2 67 9 123 -1 141 -25 10 -14 13 -103 13 -388 0 -203 2 -367 4
-365 2 2 7 173 10 380 l6 377 -26 26 -27 26 -523 0 -524 0 0 -130z"/>
</g>
</svg>
