<?xml version="1.0" standalone="no"?>
<!DOCTYPE svg PUBLIC "-//W3C//DTD SVG 20010904//EN"
 "http://www.w3.org/TR/2001/REC-SVG-20010904/DTD/svg10.dtd">
<svg version="1.0" xmlns="http://www.w3.org/2000/svg"
 width="112.000000pt" height="114.000000pt" viewBox="0 0 112.000000 114.000000"
 preserveAspectRatio="xMidYMid meet">
<metadata>
Created by potrace 1.12, written by Peter Selinger 2001-2015
</metadata>
<g transform="translate(0.000000,114.000000) scale(0.100000,-0.100000)"
fill="#000000" stroke="none">
<path d="M393 1121 c-3 -12 -17 -21 -39 -25 -23 -5 -39 -16 -51 -36 -9 -17
-20 -30 -24 -30 -4 0 -10 -17 -14 -37 -5 -21 -10 -47 -12 -58 -7 -34 -3 -97 7
-116 6 -10 10 -34 10 -54 0 -29 3 -36 15 -31 8 3 15 1 15 -3 0 -5 -5 -11 -11
-13 -8 -3 -8 -25 0 -81 13 -89 51 -176 98 -221 l31 -31 -18 -34 c-17 -34 -17
-35 6 -58 13 -13 24 -30 24 -38 0 -7 14 -29 30 -47 17 -18 30 -37 30 -41 0 -5
7 -4 15 3 9 7 12 16 8 19 -20 14 -43 62 -43 88 l1 28 18 -22 c23 -28 35 -29
28 -4 -5 19 -3 20 68 52 29 13 27 13 -48 19 -68 5 -82 9 -98 31 -30 39 -25 56
18 57 20 1 40 7 44 13 10 17 0 39 -19 39 -21 0 -4 16 23 23 11 3 2 5 -20 6
-22 1 -51 8 -65 16 -14 8 -31 14 -37 15 -20 0 -15 -38 7 -62 24 -26 20 -34
-10 -18 -23 12 -40 48 -40 86 0 14 -7 35 -16 49 -21 32 -16 101 9 99 9 -1 17
4 17 11 0 8 13 11 38 9 20 -2 43 -3 50 -3 6 -1 12 -7 12 -15 0 -19 -32 -79
-47 -89 -7 -4 -13 -17 -13 -27 0 -24 36 -35 70 -22 l25 10 -27 12 c-33 16 -34
19 -8 72 26 55 26 81 1 73 -11 -3 -22 -1 -26 5 -3 5 -16 10 -28 10 -12 1 -33
7 -47 15 -22 12 -23 14 -7 20 10 4 36 5 57 1 22 -3 40 -3 40 1 0 15 -40 33
-85 40 -25 3 -45 10 -45 16 0 16 42 81 62 95 10 7 18 24 18 37 0 16 11 30 36
46 30 18 50 22 130 22 83 0 98 -3 131 -25 38 -26 63 -77 63 -132 0 -13 7 -29
15 -36 18 -15 20 -71 3 -88 -7 -7 -22 -12 -35 -12 -13 0 -23 -4 -23 -9 0 -5
-8 -12 -17 -15 -21 -6 44 -1 67 5 10 3 16 -6 20 -31 l5 -34 13 27 c6 16 12 34
12 42 0 8 5 15 10 15 6 0 10 -7 10 -15 0 -8 4 -15 9 -15 16 0 24 88 18 181 -7
92 -35 163 -79 202 -11 9 -16 17 -12 17 5 0 2 5 -6 10 -8 5 -93 10 -188 10
-163 0 -174 -1 -179 -19z"/>
</g>
</svg>
