<?xml version="1.0" standalone="no"?>
<!DOCTYPE svg PUBLIC "-//W3C//DTD SVG 20010904//EN"
 "http://www.w3.org/TR/2001/REC-SVG-20010904/DTD/svg10.dtd">
<svg version="1.0" xmlns="http://www.w3.org/2000/svg"
 width="108.000000pt" height="118.000000pt" viewBox="0 0 108.000000 118.000000"
 preserveAspectRatio="xMidYMid meet">
<metadata>
Created by potrace 1.12, written by Peter Selinger 2001-2015
</metadata>
<g transform="translate(0.000000,118.000000) scale(0.100000,-0.100000)"
fill="#000000" stroke="none">
<path d="M20 1150 c-10 -6 41 -10 148 -10 89 0 162 -2 162 -4 0 -2 -18 -31
-40 -64 -22 -33 -40 -68 -40 -77 0 -10 -6 -26 -13 -34 -16 -19 -37 -129 -37
-195 0 -26 -4 -55 -10 -65 -5 -10 -12 -60 -15 -112 -3 -52 -11 -140 -17 -196
-10 -88 -14 -102 -32 -107 -13 -3 -25 2 -34 15 -7 10 -18 17 -23 14 -13 -9
-11 -26 2 -22 6 1 14 -4 16 -11 4 -9 -2 -11 -20 -7 -14 4 -28 2 -31 -4 -4 -5
-13 -8 -21 -4 -13 4 -15 -14 -15 -121 l0 -126 537 0 536 0 -19 22 c-33 38 -68
67 -81 68 -7 0 -13 9 -13 20 0 11 -4 20 -10 20 -5 0 -10 11 -10 25 0 14 -4 25
-10 25 -5 0 -10 9 -10 19 0 10 -6 21 -14 24 -11 4 -12 14 -5 44 9 43 1 189
-12 215 -5 9 -9 35 -9 57 0 23 -4 41 -10 41 -6 0 -10 47 -10 120 0 73 -4 120
-10 120 -5 0 -10 11 -10 25 0 14 5 25 10 25 6 0 2 10 -9 21 -11 12 -23 42 -27
65 -3 24 -10 44 -15 44 -5 0 -9 9 -9 19 0 10 -7 21 -15 25 -8 3 -15 15 -15 26
0 11 -5 20 -11 20 -6 0 -17 7 -25 15 -14 13 4 15 156 15 112 0 169 3 165 10
-8 13 -1004 13 -1025 0z m683 -115 c15 -13 27 -30 27 -38 0 -7 5 -18 10 -23
16 -16 42 -126 33 -143 -4 -9 -7 -28 -8 -42 -1 -21 3 -25 22 -21 19 4 23 0 23
-21 0 -14 -4 -28 -9 -31 -4 -3 -11 -31 -13 -63 -6 -58 -50 -173 -67 -173 -10
0 -17 -62 -27 -234 l-6 -98 -81 4 c-67 4 -83 8 -98 26 -9 12 -21 22 -27 22
-21 0 -53 41 -59 75 -6 36 -5 37 15 26 20 -11 21 -10 16 17 -7 34 4 44 71 61
28 6 56 18 64 25 11 12 7 16 -23 26 -20 6 -36 15 -36 19 0 4 -15 15 -32 26
-18 10 -41 29 -51 42 -10 13 -25 30 -34 39 -11 11 -14 26 -9 55 5 28 2 46 -9
62 -20 28 -19 47 3 47 16 1 16 1 0 13 -9 8 -16 21 -14 30 3 20 16 35 16 18 0
-7 5 -9 12 -5 6 4 27 9 47 11 48 5 53 13 8 13 -20 0 -37 3 -37 6 0 15 53 55
66 50 11 -4 13 0 9 17 -4 16 2 32 20 52 14 17 23 37 20 45 -4 8 -3 12 0 8 4
-3 25 14 47 38 46 50 70 54 111 19z"/>
</g>
</svg>
