<?xml version="1.0" standalone="no"?>
<!DOCTYPE svg PUBLIC "-//W3C//DTD SVG 20010904//EN"
 "http://www.w3.org/TR/2001/REC-SVG-20010904/DTD/svg10.dtd">
<svg version="1.0" xmlns="http://www.w3.org/2000/svg"
 width="110.000000pt" height="118.000000pt" viewBox="0 0 110.000000 118.000000"
 preserveAspectRatio="xMidYMid meet">
<metadata>
Created by potrace 1.12, written by Peter Selinger 2001-2015
</metadata>
<g transform="translate(0.000000,118.000000) scale(0.100000,-0.100000)"
fill="#000000" stroke="none">
<path d="M200 1150 l-185 -6 185 -2 185 -2 -41 -25 c-48 -29 -88 -78 -98 -120
-23 -101 -27 -135 -21 -185 4 -30 7 -78 6 -105 -1 -39 3 -56 19 -73 19 -20 20
-26 9 -57 -7 -19 -17 -35 -21 -35 -4 0 -8 -7 -8 -15 0 -8 -12 -22 -27 -32 -16
-10 -37 -26 -48 -36 -11 -10 -30 -20 -42 -23 -13 -4 -23 -9 -23 -13 0 -4 -20
-18 -45 -30 l-45 -22 0 -175 0 -174 519 0 c486 1 521 2 542 19 15 12 19 20 11
25 -7 4 -12 1 -12 -8 0 -10 -9 -16 -23 -16 -27 0 -38 20 -56 95 -18 74 -92
175 -128 175 -7 0 -13 5 -13 10 0 6 -7 10 -15 10 -8 0 -15 4 -15 9 0 5 -10 12
-22 15 -16 4 -32 26 -53 71 -27 58 -31 63 -46 49 -10 -9 -41 -16 -80 -18 -54
-2 -69 1 -96 21 -18 13 -33 33 -33 44 0 12 -7 19 -20 19 -23 0 -60 33 -60 53
0 8 -3 17 -7 21 -4 4 -8 33 -9 64 -2 31 -10 79 -19 106 -19 57 -14 102 16 141
16 20 20 35 16 61 -8 48 0 64 33 64 23 0 30 5 35 30 4 17 16 36 28 43 32 18
531 23 564 6 l23 -12 0 -524 c0 -288 4 -522 8 -519 5 3 9 236 9 518 l0 512
-26 27 -27 26 -329 -1 c-182 0 -413 -3 -515 -6z"/>
</g>
</svg>
