<?xml version="1.0" standalone="no"?>
<!DOCTYPE svg PUBLIC "-//W3C//DTD SVG 20010904//EN"
 "http://www.w3.org/TR/2001/REC-SVG-20010904/DTD/svg10.dtd">
<svg version="1.0" xmlns="http://www.w3.org/2000/svg"
 width="156.000000pt" height="156.000000pt" viewBox="0 0 156.000000 156.000000"
 preserveAspectRatio="xMidYMid meet">
<metadata>
Created by potrace 1.12, written by Peter Selinger 2001-2015
</metadata>
<g transform="translate(0.000000,156.000000) scale(0.100000,-0.100000)"
fill="#000000" stroke="none">
<path d="M801 1416 c1 -31 0 -59 -4 -62 -3 -3 -19 2 -36 12 -28 16 -30 22 -25
53 6 32 6 34 -17 27 -13 -4 -28 -8 -34 -10 -56 -15 -153 -48 -164 -55 -11 -7
-11 -13 3 -32 9 -13 16 -35 16 -50 0 -14 10 -34 21 -45 16 -14 21 -15 17 -4
-3 8 2 20 11 26 13 10 13 14 2 28 -11 13 -11 20 -3 28 18 18 14 28 -8 28 -11
0 -20 5 -20 10 0 6 11 10 24 10 14 0 28 5 31 10 9 15 41 12 56 -6 10 -13 10
-19 0 -36 -20 -32 2 -47 39 -26 25 14 30 15 30 3 0 -19 8 -19 27 1 12 12 32
15 79 12 34 -1 65 0 69 4 4 3 -2 16 -12 27 -10 12 -27 38 -39 59 -12 22 -30
38 -43 40 -21 3 -22 0 -20 -52z"/>
<path d="M900 1432 c0 -5 9 -27 20 -50 11 -22 20 -46 20 -52 0 -5 9 -10 20
-10 21 0 27 15 10 25 -12 8 -13 35 -1 35 5 0 16 -16 26 -36 9 -20 26 -39 36
-41 10 -3 19 -8 19 -12 0 -16 -43 -29 -135 -41 -163 -20 -285 -65 -372 -136
-23 -19 -48 -34 -56 -34 -8 0 -25 29 -41 73 -15 39 -36 90 -46 112 l-19 40 0
-43 c-1 -29 -13 -66 -36 -111 -35 -67 -46 -136 -26 -156 5 -6 11 -28 13 -50 3
-35 7 -41 35 -49 21 -7 36 -20 44 -38 17 -42 2 -47 -27 -10 -14 18 -34 32 -45
32 -27 0 -24 -9 12 -39 25 -22 30 -34 31 -70 0 -25 9 -58 20 -78 15 -25 18
-39 11 -55 -6 -15 -4 -37 9 -76 10 -30 18 -62 18 -69 0 -8 -20 -40 -44 -71
-24 -32 -49 -67 -55 -79 -7 -13 -20 -23 -31 -23 -29 0 -30 -23 -1 -49 15 -14
27 -19 29 -12 2 6 8 11 13 11 12 0 12 -57 -1 -65 -13 -8 -13 -25 0 -25 6 0 10
7 10 15 0 19 16 19 24 0 4 -12 11 -13 32 -4 15 5 41 9 58 7 30 -3 31 -2 33 48
2 45 0 52 -19 57 -19 5 -20 7 -4 23 19 19 11 21 130 -43 121 -65 254 -85 323
-49 18 9 35 16 38 16 4 0 6 -19 4 -43 -1 -23 -2 -78 -1 -123 l2 -81 99 -2 98
-1 -5 27 c-3 16 -16 41 -28 56 -13 16 -24 38 -24 49 0 12 -8 22 -21 25 -16 5
-20 11 -16 32 6 30 -33 110 -62 128 -14 9 -30 8 -66 -3 -66 -19 -89 -18 -168
11 -37 13 -74 22 -82 19 -37 -14 -141 83 -181 170 -22 47 -23 59 -18 157 6 93
4 112 -15 163 -11 31 -21 64 -21 72 0 25 44 61 85 68 23 5 56 23 81 44 110 97
210 132 312 112 49 -10 64 -19 112 -68 30 -32 61 -71 69 -87 24 -53 27 -59 38
-62 5 -2 14 11 19 29 8 28 16 34 46 39 75 12 92 55 53 135 -29 59 -87 111
-133 120 -31 6 -67 40 -112 104 -32 45 -49 58 -72 52 -10 -2 -18 1 -18 8 0 13
-28 39 -42 40 -5 0 -8 -4 -8 -8z"/>
<path d="M183 253 c-13 -2 -23 -8 -23 -13 0 -5 -7 -7 -14 -4 -20 8 -146 -55
-146 -72 0 -8 9 -13 19 -11 28 3 30 -16 3 -28 -18 -8 -22 -18 -22 -54 0 -56
18 -70 93 -71 44 0 57 3 57 15 0 19 19 19 26 0 4 -8 17 -15 30 -15 39 0 33 52
-11 97 -40 41 -45 68 -14 76 11 3 23 15 26 27 3 12 17 26 30 31 13 5 21 13 18
19 -6 10 -31 11 -72 3z"/>
<path d="M1110 250 c0 -5 33 -25 73 -44 51 -24 67 -36 55 -40 -10 -3 -25 -8
-34 -11 -15 -5 -15 -7 0 -30 9 -13 16 -30 16 -38 0 -7 11 -24 25 -37 14 -13
23 -30 21 -37 -4 -10 14 -13 80 -13 l84 0 -6 27 c-4 16 -11 30 -16 31 -4 2 -8
14 -8 27 0 13 -5 27 -10 30 -6 4 -22 24 -36 46 -22 36 -54 53 -54 29 0 -5 -9
-10 -20 -10 -11 0 -20 5 -20 10 0 6 7 10 15 10 8 0 15 4 15 9 0 9 -74 25 -103
22 -10 -1 -29 5 -42 13 -28 18 -35 20 -35 6z"/>
<path d="M546 174 c-4 -10 -13 -13 -25 -9 -11 3 -30 0 -43 -8 -37 -24 -93 -30
-108 -12 -15 17 -110 21 -110 4 0 -6 5 -20 12 -32 7 -12 11 -34 9 -49 -1 -16
2 -28 8 -28 5 0 13 -9 16 -20 6 -19 15 -20 145 -20 133 0 138 1 133 20 -7 26
14 26 22 0 5 -16 15 -20 56 -20 58 0 57 5 -11 80 -22 25 -47 57 -55 71 -17 32
-41 43 -49 23z"/>
</g>
</svg>
